Jump_normalized_precision_landing02_filtered_grf
version=1
nRows=28
nColumns=37
inDegrees=yes
endheader
time		1_ground_force_vx		1_ground_force_vy		1_ground_force_vz		1_ground_force_px		1_ground_force_py		1_ground_force_pz		1_ground_torque_x		1_ground_torque_y		1_ground_torque_z		2_ground_force_vx		2_ground_force_vy		2_ground_force_vz		2_ground_force_px		2_ground_force_py		2_ground_force_pz		2_ground_torque_x		2_ground_torque_y		2_ground_torque_z		3_ground_force_vx		3_ground_force_vy		3_ground_force_vz		3_ground_force_px		3_ground_force_py		3_ground_force_pz		3_ground_torque_x		3_ground_torque_y		3_ground_torque_z		4_ground_force_vx		4_ground_force_vy		4_ground_force_vz		4_ground_force_px		4_ground_force_py		4_ground_force_pz		4_ground_torque_x		4_ground_torque_y		4_ground_torque_z		
0.419500		0.000000		-0.000000		-0.000000		0.070722		0.000000		0.245450		-0.000000		-0.000000		0.000000		0.000000		0.000000		0.000000		-0.174813		0.000000		0.268225		0.000000		-0.000000		0.000000		-20.450216		634.389471		10.007252		0.380693		1.273779		1.887806		1.344592		-41.710793		-0.657972		49.241020		559.618063		32.824514		-0.351893		1.267235		1.876606		3.399028		38.629535		2.265823		
0.421848		0.000000		-0.000000		-0.000000		0.070722		0.000000		0.245450		-0.000000		-0.000000		0.000000		-0.000000		0.000000		0.000000		-0.174813		0.000000		0.268225		0.000000		-0.000000		0.000000		-19.698153		629.833809		5.686277		0.380697		1.273796		1.887867		1.300316		-41.576672		-0.375352		48.591098		556.571657		30.035214		-0.351892		1.267225		1.876706		3.368035		38.578123		2.081849		
0.424197		0.000000		-0.000000		-0.000000		0.070722		0.000000		0.245450		-0.000000		-0.000000		0.000000		-0.000000		-0.000000		0.000000		-0.174813		0.000000		0.268225		-0.000000		0.000000		-0.000000		-18.918305		625.388693		1.301968		0.380703		1.273815		1.887928		1.254199		-41.460538		-0.086301		47.845670		553.398775		27.175476		-0.351902		1.267216		1.876799		3.330890		38.526192		1.891877		
0.426545		0.000000		-0.000000		-0.000000		0.070722		0.000000		0.245450		-0.000000		-0.000000		0.000000		-0.000000		-0.000000		-0.000000		-0.174813		0.000000		0.268225		-0.000000		0.000000		-0.000000		-18.117079		620.984334		-3.161828		0.380709		1.273834		1.887989		1.206480		-41.353557		0.210562		46.992471		550.090215		24.207861		-0.351917		1.267214		1.876886		3.286792		38.474942		1.693166		
0.428894		-0.000000		-0.000000		-0.000000		0.070722		0.000000		0.245450		-0.000000		-0.000000		0.000000		-0.000000		-0.000000		-0.000000		-0.174813		0.000000		0.268225		-0.000000		0.000000		-0.000000		-17.291796		616.518149		-7.732281		0.380713		1.273857		1.888053		1.156773		-41.243391		0.517279		46.039199		546.652547		21.101833		-0.351929		1.267218		1.876963		3.236227		38.425795		1.483301		
0.431242		-0.000000		-0.000000		-0.000000		0.070722		0.000000		0.245450		-0.000000		-0.000000		0.000000		-0.000000		-0.000000		-0.000000		-0.174813		0.000000		0.268225		-0.000000		0.000000		-0.000000		-16.430048		611.871118		-12.436558		0.380715		1.273882		1.888119		1.104056		-41.116217		0.835722		45.015234		543.108202		17.841055		-0.351931		1.267228		1.877030		3.181099		38.379961		1.260764		
0.433591		-0.000000		-0.000000		-0.000000		0.070722		0.000000		0.245450		-0.000000		-0.000000		0.000000		-0.000000		-0.000000		-0.000000		-0.174813		0.000000		0.268225		-0.000000		0.000000		-0.000000		-15.512796		606.930033		-17.291740		0.380715		1.273909		1.888189		1.046895		-40.959279		1.166960		43.962224		539.484657		14.420322		-0.351918		1.267245		1.877090		3.124128		38.337920		1.024756		
0.435939		-0.000000		0.000000		0.000000		0.070722		0.000000		0.245450		0.000000		0.000000		-0.000000		-0.000000		-0.000000		-0.000000		-0.174813		0.000000		0.268225		-0.000000		0.000000		-0.000000		-14.519909		601.602017		-22.295044		0.380712		1.273936		1.888261		0.983815		-40.762363		1.510638		42.923685		535.804300		10.843231		-0.351891		1.267266		1.877144		3.068143		38.298784		0.775057		
0.438288		-0.000000		0.000000		0.000000		0.070722		0.000000		0.245450		0.000000		0.000000		-0.000000		0.000000		-0.000000		-0.000000		-0.174813		0.000000		0.268225		-0.000000		0.000000		-0.000000		-13.438137		595.833329		-27.412745		0.380709		1.273962		1.888334		0.913858		-40.519647		1.864218		41.934045		532.076237		7.117413		-0.351848		1.267289		1.877193		3.015312		38.259538		0.511767		
0.440636		-0.000000		0.000000		0.000000		0.070722		0.000000		0.245450		0.000000		0.000000		-0.000000		0.000000		0.000000		0.000000		-0.174813		0.000000		0.268225		0.000000		-0.000000		0.000000		-12.267641		589.621996		-32.578309		0.380708		1.273984		1.888407		0.837039		-40.230874		2.222882		41.008352		528.289036		3.248769		-0.351794		1.267311		1.877239		2.966414		38.214783		0.234990		
0.442985		-0.000000		0.000000		0.000000		0.070722		0.000000		0.245450		0.000000		0.000000		-0.000000		0.000000		0.000000		0.000000		-0.174813		0.000000		0.268225		0.000000		-0.000000		0.000000		-11.020983		583.004376		-37.702767		0.380711		1.274000		1.888480		0.754256		-39.899762		2.580311		40.140125		524.405834		-0.762439		-0.351734		1.267330		1.877283		2.920683		38.156909		-0.055479		
0.445333		0.000000		0.000000		0.000000		0.070722		0.000000		0.245450		0.000000		0.000000		-0.000000		0.000000		0.000000		0.000000		-0.174813		0.000000		0.268225		0.000000		-0.000000		0.000000		-9.721240		576.044801		-42.685884		0.380722		1.274008		1.888550		0.667146		-39.532727		2.929451		39.301776		520.362122		-4.923831		-0.351676		1.267344		1.877324		2.875822		38.076400		-0.360308		
0.447682		0.000000		0.000000		0.000000		0.070722		0.000000		0.245450		0.000000		0.000000		-0.000000		0.000000		0.000000		0.000000		-0.174813		0.000000		0.268225		0.000000		-0.000000		0.000000		-8.398359		568.827583		-47.439942		0.380740		1.274007		1.888618		0.577843		-39.137890		3.264090		38.449389		516.076919		-9.243232		-0.351624		1.267352		1.877363		2.828428		37.963870		-0.679972		
0.450030		0.000000		0.000000		0.000000		0.070722		0.000000		0.245450		0.000000		0.000000		-0.000000		0.000000		0.000000		0.000000		-0.174813		0.000000		0.268225		0.000000		-0.000000		0.000000		-7.081253		561.424450		-51.906229		0.380768		1.273998		1.888685		0.488395		-38.721567		3.579986		37.533340		511.457337		-13.726551		-0.351585		1.267354		1.877400		2.774735		37.810622		-1.014770		
0.452379		0.000000		-0.000000		-0.000000		0.070722		0.000000		0.245450		-0.000000		-0.000000		0.000000		0.000000		0.000000		0.000000		-0.174813		0.000000		0.268225		0.000000		-0.000000		0.000000		-5.794062		553.882524		-56.064950		0.380804		1.273981		1.888752		0.400511		-38.286887		3.875471		36.505236		506.404026		-18.369590		-0.351562		1.267350		1.877433		2.711142		37.609244		-1.364273		
0.454727		0.000000		-0.000000		-0.000000		0.070722		0.000000		0.245450		-0.000000		-0.000000		0.000000		-0.000000		0.000000		0.000000		-0.174813		0.000000		0.268225		0.000000		-0.000000		0.000000		-4.552267		546.216108		-59.958832		0.380845		1.273960		1.888819		0.315308		-37.833214		4.153006		35.329330		500.833582		-23.156472		-0.351555		1.267341		1.877464		2.635101		37.355608		-1.727187		
0.457076		0.000000		-0.000000		-0.000000		0.070722		0.000000		0.245450		-0.000000		-0.000000		0.000000		-0.000000		-0.000000		-0.000000		-0.174813		0.000000		0.268225		-0.000000		0.000000		-0.000000		-3.360573		538.401098		-63.673070		0.380884		1.273941		1.888891		0.233166		-37.355777		4.417819		33.986483		494.675100		-28.059418		-0.351560		1.267331		1.877491		2.545330		37.047446		-2.101449		
0.459424		0.000000		-0.000000		-0.000000		0.070722		0.000000		0.245450		-0.000000		-0.000000		0.000000		-0.000000		-0.000000		-0.000000		-0.174813		0.000000		0.268225		-0.000000		0.000000		-0.000000		-2.213357		530.379033		-67.324022		0.380921		1.273930		1.888970		0.153765		-36.846308		4.677113		32.476187		487.864808		-33.042096		-0.351574		1.267320		1.877517		2.441907		36.682916		-2.484469		
0.461773		-0.000000		-0.000000		-0.000000		0.070722		0.000000		0.245450		-0.000000		-0.000000		0.000000		-0.000000		-0.000000		-0.000000		-0.174813		0.000000		0.268225		-0.000000		0.000000		-0.000000		-1.095287		522.069608		-71.042523		0.380950		1.273930		1.889057		0.076145		-36.294800		4.938949		30.820608		480.351631		-38.064643		-0.351588		1.267313		1.877542		2.326529		36.259957		-2.873377		
0.464121		-0.000000		-0.000000		-0.000000		0.070722		0.000000		0.245450		-0.000000		-0.000000		0.000000		-0.000000		-0.000000		-0.000000		-0.174813		0.000000		0.268225		-0.000000		0.000000		-0.000000		0.014463		513.387379		-74.945903		0.380969		1.273946		1.889152		-0.001005		-35.691568		5.210366		29.060790		472.092432		-43.094018		-0.351599		1.267311		1.877568		2.202204		35.774847		-3.265650		
0.466470		-0.000000		-0.000000		-0.000000		0.070722		0.000000		0.245450		-0.000000		-0.000000		0.000000		-0.000000		-0.000000		-0.000000		-0.174813		0.000000		0.268225		-0.000000		0.000000		-0.000000		1.136851		504.250855		-79.117379		0.380979		1.273978		1.889255		-0.078972		-35.028058		5.495930		27.248197		463.033934		-48.109704		-0.351600		1.267316		1.877597		2.072612		35.220326		-3.659433		
0.468818		-0.000000		0.000000		0.000000		0.070722		0.000000		0.245450		0.000000		0.000000		-0.000000		-0.000000		-0.000000		-0.000000		-0.174813		0.000000		0.268225		-0.000000		0.000000		-0.000000		2.287042		494.595565		-83.591232		0.380979		1.274025		1.889363		3.129077		-47.007844		-69.314144		25.438949		453.111448		-53.102995		-0.351588		1.267328		1.877629		1.941735		34.585711		-4.053335		
0.471167		-0.000000		0.000000		0.000000		0.070722		0.000000		0.245450		0.000000		0.000000		-0.000000		0.000000		-0.000000		-0.000000		-0.174813		0.000000		0.268225		-0.000000		0.000000		-0.000000		3.466744		484.399145		-88.338394		0.380973		1.274084		1.889472		3.020553		-46.975385		-67.648499		23.684531		442.273284		-58.075028		-0.351561		1.267348		1.877666		1.813282		33.860383		-4.446230		
0.473515		-0.000000		0.000000		0.000000		0.070722		0.000000		0.245450		0.000000		0.000000		-0.000000		0.000000		0.000000		0.000000		-0.174813		0.000000		0.268225		0.000000		-0.000000		0.000000		4.662984		473.670112		-93.277735		0.380963		1.274149		1.889578		2.899390		-46.911978		-65.891255		22.026927		430.462064		-63.024282		-0.351520		1.267376		1.877706		1.690343		33.033580		-4.836474		
0.475864		-0.000000		0.000000		0.000000		0.070722		0.000000		0.245450		0.000000		0.000000		-0.000000		0.000000		0.000000		0.000000		-0.174813		0.000000		0.268225		0.000000		-0.000000		0.000000		5.848547		462.443979		-98.284501		0.380950		1.274214		1.889677		2.770680		-46.802910		-64.052405		20.498869		417.621087		-67.934442		-0.351465		1.267413		1.877752		1.575424		32.095944		-5.221054		
0.478212		0.000000		0.000000		0.000000		0.070722		0.000000		0.245450		0.000000		0.000000		-0.000000		0.000000		0.000000		0.000000		-0.174813		0.000000		0.268225		0.000000		-0.000000		0.000000		6.987594		450.788989		-103.205651		0.380936		1.274276		1.889765		2.639932		-46.631994		-62.148054		19.117651		403.744459		-72.769246		-0.351402		1.267454		1.877800		1.470027		31.045408		-5.595497		
0.480561		0.000000		0.000000		0.000000		0.070722		0.000000		0.245450		0.000000		0.000000		-0.000000		0.000000		0.000000		0.000000		-0.174813		0.000000		0.268225		0.000000		-0.000000		0.000000		8.044413		438.769769		-107.883667		0.380923		1.274328		1.889839		2.511977		-46.381766		-60.194097		17.889622		388.855736		-77.463378		-0.351335		1.267501		1.877848		1.374868		29.884661		-5.953276		
0.482909		0.000000		-0.000000		0.000000		0.070722		0.000000		0.245450		0.000000		0.000000		-0.000000		0.000000		0.000000		0.000000		-0.174813		0.000000		0.268225		0.000000		-0.000000		0.000000		8.990660		426.429410		-112.165711		0.380912		1.274371		1.889897		2.390495		-46.033872		-58.203392		16.811391		373.015036		-81.920072		-0.351272		1.267551		1.877892		1.289934		28.621336		-6.285695		
